<svg width="82" height="82" viewBox="0 0 82 82" fill="none" xmlns="http://www.w3.org/2000/svg">
<g id="Group">
<g id="Group_2">
<g id="Group_3">
<g id="Group_4">
<path id="Vector" d="M41 0C18.368 0 0 18.368 0 41C0 63.632 18.368 82 41 82C63.632 82 82 63.632 82 41C82 18.368 63.632 0 41 0ZM80.36 41C80.36 43.829 80.032 46.535 79.458 49.2L74.743 47.683C75.153 45.51 75.399 43.296 75.399 41.041C75.399 38.786 75.153 36.531 74.743 34.399L79.458 32.882C80.032 35.465 80.36 38.171 80.36 41ZM36.9 75.03V79.95C31.283 79.376 26.076 77.654 21.402 74.948L24.313 70.971C28.126 73.062 32.349 74.497 36.9 75.03ZM45.1 75.03C49.651 74.497 53.874 73.103 57.687 70.93L60.598 74.907C55.924 77.613 50.717 79.335 45.1 79.909V75.03ZM41 73.8C22.878 73.8 8.2 59.122 8.2 41C8.2 22.878 22.878 8.2 41 8.2C59.122 8.2 73.8 22.878 73.8 41C73.8 59.122 59.122 73.8 41 73.8ZM1.64 41C1.64 38.171 1.968 35.465 2.542 32.8L7.257 34.317C6.847 36.49 6.601 38.704 6.601 40.959C6.601 43.214 6.847 45.469 7.257 47.601L2.542 49.118C1.968 46.535 1.64 43.829 1.64 41ZM45.1 6.97V2.05C50.717 2.624 55.924 4.346 60.598 7.052L57.687 11.029C53.874 8.938 49.651 7.503 45.1 6.97ZM36.9 6.97C32.349 7.503 28.126 8.897 24.313 11.07L21.402 7.093C26.076 4.387 31.283 2.665 36.9 2.091V6.97ZM76.916 25.01L72.16 26.568C70.274 22.509 67.609 18.86 64.329 15.826L67.199 11.849C71.299 15.539 74.62 19.967 76.916 25.01ZM14.76 11.89L17.63 15.867C14.391 18.901 11.726 22.509 9.799 26.609L5.043 25.051C7.38 19.967 10.701 15.539 14.76 11.89ZM5.084 56.99L9.84 55.432C11.726 59.491 14.391 63.14 17.671 66.174L14.801 70.151C10.701 66.461 7.38 62.033 5.084 56.99ZM67.24 70.11L64.37 66.133C67.609 63.099 70.274 59.491 72.201 55.391L76.957 56.949C74.62 62.033 71.299 66.461 67.24 70.11Z" fill="white"/>
</g>
</g>
</g>
</g>
</svg>
