<svg width="38" height="50" viewBox="0 0 38 50" fill="none" xmlns="http://www.w3.org/2000/svg">
<path id="Vector" d="M19.1228 49.6C15.6378 49.6 12.2348 49.067 8.9138 48.001C5.5928 46.935 2.8048 45.418 0.549805 43.409L5.71581 35.045C6.69981 36.111 7.92981 37.013 9.40581 37.792C10.8818 38.571 12.4808 39.145 14.2028 39.555C15.8838 39.965 17.5648 40.17 19.1638 40.17C21.4188 40.17 23.2228 39.801 24.6578 39.022C26.0928 38.243 26.7898 37.095 26.7898 35.619C26.7898 34.389 26.2568 33.405 25.2318 32.585C24.2068 31.765 22.2798 30.945 19.5328 30.166L15.5968 29.059C10.8408 27.706 7.3968 25.861 5.3468 23.524C3.2558 21.187 2.23081 18.358 2.23081 15.037C2.23081 12.905 2.68181 10.978 3.54281 9.17402C4.40381 7.37002 5.63381 5.85302 7.23281 4.50002C8.83181 3.18802 10.6768 2.16303 12.8498 1.46603C14.9818 0.728027 17.3188 0.400024 19.8608 0.400024C23.3458 0.400024 26.5848 0.933026 29.5778 1.95803C32.5708 2.98303 34.9898 4.41802 36.7938 6.22202L31.4638 14.34C30.6438 13.438 29.5778 12.659 28.3478 11.962C27.1178 11.306 25.7648 10.773 24.3298 10.363C22.8948 9.99403 21.4188 9.78902 19.9428 9.78902C18.5078 9.78902 17.2368 9.99403 16.1708 10.363C15.1048 10.773 14.2438 11.306 13.6698 12.003C13.0548 12.7 12.7678 13.561 12.7678 14.545C12.7678 15.324 12.9728 15.939 13.4238 16.472C13.8748 17.005 14.6538 17.497 15.7198 17.989C16.7858 18.481 18.2208 18.973 20.0658 19.547L24.0838 20.777C28.7988 22.212 32.2428 23.975 34.3338 26.107C36.4248 28.239 37.4908 31.027 37.4908 34.43C37.4908 37.423 36.7528 40.047 35.2358 42.343C33.7598 44.639 31.6278 46.402 28.8808 47.714C26.1338 48.944 22.8948 49.6 19.1228 49.6Z" fill="#E21F26"/>
</svg>
