<svg xmlns="http://www.w3.org/2000/svg" width="36" height="37" viewBox="0 0 36 37" fill="none">
<path d="M0.0124512 36.6V1.75004H11.1645V5.56304C12.4765 3.92304 13.9934 2.73404 15.7564 1.99604C17.5194 1.25804 19.4055 0.889038 21.3325 0.889038C24.6125 0.889038 27.2775 1.54504 29.4095 2.81604C31.5005 4.08704 33.0584 5.76804 34.0834 7.77704C35.1084 9.82704 35.6004 11.959 35.6004 14.214V36.6H24.4484V17.699C24.4484 15.608 23.8744 13.968 22.8084 12.779C21.7014 11.59 20.1024 10.975 17.9704 10.975C16.6174 10.975 15.4284 11.262 14.4034 11.877C13.3784 12.492 12.5994 13.312 12.0254 14.378C11.4514 15.444 11.1645 16.674 11.1645 18.068V36.6H0.0124512Z" fill="#E21F26"/>
</svg>