<svg xmlns="http://www.w3.org/2000/svg" width="38" height="50" viewBox="0 0 38 50" fill="none">
<path d="M18.9724 49.6C15.4874 49.6 12.0844 49.067 8.76341 48.001C5.44241 46.935 2.65441 45.418 0.399414 43.409L5.56542 35.045C6.54942 36.111 7.77942 37.013 9.25542 37.792C10.7314 38.571 12.3304 39.145 14.0524 39.555C15.7334 39.965 17.4144 40.17 19.0134 40.17C21.2684 40.17 23.0724 39.801 24.5074 39.022C25.9424 38.243 26.6394 37.095 26.6394 35.619C26.6394 34.389 26.1064 33.405 25.0814 32.585C24.0564 31.765 22.1294 30.945 19.3824 30.166L15.4464 29.059C10.6904 27.706 7.24642 25.861 5.19642 23.524C3.14642 21.187 2.08042 18.358 2.08042 15.037C2.08042 12.905 2.53141 10.978 3.39241 9.17402C4.25341 7.37002 5.48341 5.85302 7.08241 4.50002C8.68141 3.18802 10.5264 2.16303 12.6994 1.46603C14.8314 0.728027 17.1684 0.400024 19.7104 0.400024C23.1954 0.400024 26.4344 0.933026 29.4274 1.95803C32.4204 2.98303 34.8394 4.41802 36.6434 6.22202L31.3134 14.34C30.4934 13.438 29.4274 12.659 28.1974 11.962C26.9674 11.306 25.6144 10.773 24.1794 10.363C22.7444 9.99403 21.2684 9.78902 19.7924 9.78902C18.3574 9.78902 17.0864 9.99403 16.0204 10.363C14.9544 10.773 14.0934 11.306 13.5194 12.003C12.9454 12.7 12.6174 13.561 12.6174 14.545C12.6174 15.324 12.8224 15.939 13.2734 16.472C13.7244 17.005 14.5034 17.497 15.5694 17.989C16.6354 18.481 18.0704 18.973 19.9154 19.547L23.9334 20.777C28.6484 22.212 32.0924 23.975 34.1834 26.107C36.2744 28.239 37.3404 31.027 37.3404 34.43C37.3404 37.423 36.6024 40.047 35.0854 42.343C33.6094 44.639 31.4774 46.402 28.7304 47.714C25.9834 48.944 22.7444 49.6 18.9724 49.6Z" fill="#E21F26"/>
</svg>