<svg xmlns="http://www.w3.org/2000/svg" width="40" height="49" viewBox="0 0 40 49" fill="none">
<path d="M0.842041 48.9V1.75004H10.477V5.89104C11.789 4.37404 13.429 3.14404 15.438 2.24204C17.447 1.34004 19.784 0.889038 22.449 0.889038C25.77 0.889038 28.722 1.66804 31.305 3.18504C33.888 4.70204 35.938 6.83404 37.455 9.62204C38.931 12.369 39.71 15.608 39.71 19.298C39.71 21.881 39.3 24.3 38.439 26.514C37.578 28.728 36.389 30.696 34.831 32.377C33.273 34.058 31.428 35.329 29.296 36.272C27.164 37.215 24.827 37.666 22.285 37.666C20.235 37.666 18.349 37.338 16.668 36.682C14.946 36.026 13.429 35.083 12.076 33.894V48.9H0.842041ZM20.358 28.031C21.957 28.031 23.433 27.662 24.704 26.965C25.975 26.268 26.959 25.243 27.697 23.931C28.435 22.619 28.804 21.061 28.804 19.257C28.804 17.453 28.435 15.895 27.697 14.583C26.959 13.271 25.934 12.246 24.663 11.549C23.392 10.852 21.957 10.483 20.358 10.483C18.759 10.483 17.324 10.852 16.053 11.549C14.782 12.246 13.798 13.271 13.06 14.583C12.322 15.895 11.953 17.453 11.953 19.257C11.953 21.061 12.322 22.619 13.06 23.931C13.798 25.243 14.782 26.268 16.053 26.965C17.324 27.662 18.759 28.031 20.358 28.031Z" fill="#E21F26"/>
</svg>