<svg xmlns="http://www.w3.org/2000/svg" width="36" height="37" viewBox="0 0 36 37" fill="none">
<path d="M0.379639 36.6V1.75004H11.5316V5.56304C12.8436 3.92304 14.3606 2.73404 16.1236 1.99604C17.8867 1.25804 19.7726 0.889038 21.6996 0.889038C24.9796 0.889038 27.6446 1.54504 29.7766 2.81604C31.8676 4.08704 33.4256 5.76804 34.4506 7.77704C35.4756 9.82704 35.9676 11.959 35.9676 14.214V36.6H24.8156V17.699C24.8156 15.608 24.2416 13.968 23.1756 12.779C22.0686 11.59 20.4696 10.975 18.3376 10.975C16.9846 10.975 15.7956 11.262 14.7706 11.877C13.7456 12.492 12.9666 13.312 12.3926 14.378C11.8186 15.444 11.5316 16.674 11.5316 18.068V36.6H0.379639Z" fill="white"/>
</svg>